<svg width="7157" height="1323" viewBox="0 0 7157 1323" fill="none" xmlns="http://www.w3.org/2000/svg">
<g clip-path="url(#clip0_4258_8137)">
<path d="M5586.94 1326C5588.37 1322.31 5585.16 1322.46 5583.2 1322.21C5572.02 1320.76 5560.75 1319.89 5549.65 1318C5500.1 1309.56 5452.95 1294.39 5410.15 1267.28C5366.83 1239.84 5333.09 1203.41 5307.89 1158.89C5306.42 1156.31 5305.01 1153.69 5303.61 1151.17C5308.11 1145.73 5415.92 1081.93 5437.97 1071.59C5438.59 1072.11 5439.57 1072.57 5439.97 1073.33C5469.24 1129.21 5515.99 1161.9 5576.77 1175.06C5622.77 1185.02 5669.19 1185.56 5715.31 1175.84C5766.99 1164.95 5809.04 1138.98 5837.37 1093.37C5850.86 1071.65 5858.85 1047.69 5861.96 1022.37C5863.65 1008.58 5864.04 994.578 5864.23 980.662C5864.58 955.67 5864.33 930.669 5864.32 905.672C5864.32 904.096 5864.16 902.521 5863.98 899.331C5856.12 908.616 5849.25 916.818 5842.28 924.941C5821.73 948.922 5797.52 968.511 5769.99 983.865C5730.17 1006.07 5687.21 1017.1 5641.81 1020.25C5599.32 1023.2 5557.49 1020.07 5516.37 1009.24C5462.7 995.111 5415.56 968.86 5374.3 931.632C5337.1 898.053 5306.61 859.435 5284.65 814.383C5267.39 778.97 5256.75 741.51 5251.52 702.387C5248.02 676.236 5247.13 649.973 5248.56 623.825C5253.14 540.427 5281.3 466.059 5335.92 402.168C5369.16 363.287 5407.74 331.242 5453.73 308.507C5489.8 290.673 5527.98 279.995 5567.95 275.661C5611.89 270.897 5655.57 272.224 5698.62 282.7C5763.34 298.449 5815.69 333.4 5856.36 386.025C5858.37 388.632 5860.42 391.216 5863.16 394.729C5865.43 385.513 5864.01 377.024 5864.27 368.67C5864.53 360.346 5864.33 352.007 5864.33 343.674C5864.33 335.009 5864.33 326.343 5864.33 317.677C5864.33 309.434 5864.33 301.191 5864.33 292.537C5916.43 292.537 5967.58 292.537 6019.67 292.537C6019.67 296.206 6019.67 299.448 6019.67 302.691C6019.67 533.334 6020.04 763.978 6019.39 994.619C6019.24 1046.78 6008.94 1097.4 5985.35 1144.65C5963.46 1188.48 5931.54 1223.46 5891.81 1251.67C5839.65 1288.71 5781.85 1311.46 5718.51 1320.16C5713.25 1320.89 5707.96 1321.37 5702.74 1322.25C5701.31 1322.49 5700.05 1323.76 5699.36 1325.28C5662.63 1326 5625.25 1326 5586.94 1326ZM5753.14 844.222C5755.38 842.808 5757.63 841.39 5759.88 839.98C5795.35 817.751 5822.81 788.007 5841.66 750.715C5863.84 706.868 5868.44 660.094 5862.29 611.975C5855.54 559.079 5831.41 515.341 5792.29 479.272C5748.54 438.939 5696.29 421.456 5637.82 420.17C5619.19 419.76 5600.68 421.757 5582.47 425.761C5508.9 441.933 5456.52 485.074 5424.73 552.677C5405.9 592.698 5402.45 635.47 5407.6 679.189C5414.33 736.41 5440.49 783.165 5483.86 820.26C5540.23 868.466 5606.26 881.148 5678 870.632C5704.18 866.795 5728.77 857.927 5753.14 844.222Z" fill="#FEFEFE"/>
<path d="M421.063 2C420.395 6.85117 424.436 5.20433 426.342 5.57612C441.321 8.49641 456.508 10.5546 471.288 14.2496C516.519 25.5572 556.903 46.5884 592.945 76.1809C625.182 102.649 651.945 133.695 672.519 169.979C692.432 205.097 704.574 242.848 710.11 282.791C713.266 305.564 714.612 328.464 713.598 351.396C710.474 422.064 689.437 486.433 645.012 542.292C614.595 580.538 578.308 611.879 534.652 634.175C502.727 650.479 468.822 660.754 433.319 665.823C412.213 668.837 391.027 669.739 369.723 669.673C307.41 669.481 245.097 669.605 182.783 669.605C179.141 669.605 175.498 669.605 170.371 669.605C170.269 684.315 170.332 698.497 170.321 712.675C170.31 727.337 170.319 741.999 170.319 756.661C170.319 770.99 170.319 785.319 170.319 799.647C170.319 814.309 170.319 828.971 170.319 843.633C170.319 857.962 170.319 872.29 170.319 886.619C170.319 900.948 170.319 915.277 170.319 929.605C170.319 944.267 170.319 958.929 170.319 973.591C170.319 987.861 170.319 1002.13 170.319 1017.67C114.261 1017.67 59.0556 1017.67 2.92538 1017.84C2 679.54 2 341.079 2 2C141.375 2 280.75 2 421.063 2ZM366.986 160.25C301.786 160.25 236.587 160.25 171.461 160.25C169.483 171.716 169.926 504.756 172.004 512.257C175.502 512.257 179.148 512.257 182.795 512.257C246.437 512.257 310.079 512.345 373.72 512.167C383.985 512.138 394.353 511.637 404.492 510.134C463.568 501.378 505.213 468.64 529.924 415.104C550.074 371.451 551.57 325.54 538.163 279.761C521.802 223.893 485.686 185.981 430.019 167.559C410.219 161.006 389.698 159.577 366.986 160.25Z" fill="#FC3F5F"/>
<path d="M1003.06 2C1004.11 5.99278 1004.3 9.98556 1004.31 13.9784C1004.32 132.29 1004.32 250.601 1004.32 368.913C1004.32 372.56 1004.32 376.207 1004.32 380.684C1008.49 379.09 1009.87 375.549 1011.82 372.844C1047.92 322.552 1097.13 292.841 1157.19 280.175C1190.63 273.12 1224.54 271.981 1258.44 274.452C1294.18 277.057 1328.68 285.557 1360.86 301.728C1405.39 324.111 1440.57 356.842 1465.95 399.773C1488.15 437.318 1500.16 478.297 1504.14 521.501C1506.3 544.95 1507.48 568.57 1507.53 592.116C1507.84 729.424 1507.68 866.732 1507.68 1004.04C1507.68 1008.02 1507.68 1011.99 1507.68 1015.81C1500.28 1017.99 1364.78 1018.62 1349.68 1016.51C1349.68 1012.85 1349.68 1008.96 1349.68 1005.07C1349.68 862.767 1349.96 720.459 1349.47 578.153C1349.36 545.886 1342.19 514.824 1324.56 487C1303.86 454.333 1273.74 435.135 1236.71 426.058C1219.87 421.931 1202.64 419.934 1185.37 420.388C1140.3 421.574 1098.78 433.141 1064.06 463.737C1044.13 481.302 1029.9 502.736 1020.69 527.412C1011.23 552.798 1006.1 579.188 1005.73 606.337C1005.11 651.275 1004.49 696.216 1004.38 741.157C1004.17 829.141 1004.32 917.125 1004.32 1005.11C1004.32 1008.75 1004.32 1012.4 1004.32 1015.87C996.556 1018.07 871.487 1018.89 848.688 1016.99C848.371 1015 847.929 1012.84 847.715 1010.67C847.553 1009.02 847.681 1007.34 847.681 1005.67C847.681 674.065 847.681 342.459 847.684 10.8539C847.684 8.52221 847.717 6.19053 847.867 2.92943C899.375 2 950.75 2 1003.06 2Z" fill="#FC3F5F"/>
<path d="M4393.06 2C4394.11 23.3173 4394.28 44.6345 4394.32 65.9519C4394.38 97.5825 4394.34 129.213 4394.34 161.804C4299.59 161.804 4205.16 161.804 4109.89 161.804C4109.89 447.154 4109.89 731.546 4109.89 1016.61C4053.61 1016.61 3998.16 1016.61 3941.83 1016.61C3941.83 732.032 3941.83 447.639 3941.83 162.332C3846.19 162.332 3751.42 162.332 3655.69 162.332C3655.69 108.899 3655.69 56.3761 3655.85 2.92641C3901.38 2 4146.75 2 4393.06 2Z" fill="#FFFEFE"/>
<path d="M7160 369.25C7156.44 368.129 7156.74 371.279 7155.96 373.081C7147.8 391.887 7134.46 405.829 7115.53 413.593C7062.85 435.202 7014.9 390.585 7015.31 348.722C7015.58 321.375 7026.19 300.896 7047.62 285.025C7069.6 268.747 7114.35 266.028 7140.33 295.326C7146.39 302.161 7150.69 310.557 7155.86 318.187C7156.69 319.409 7157.9 320.372 7159.47 320.727C7160 332.042 7160 344.085 7159.46 357.48C7159.28 360.555 7159.64 362.278 7160 364C7160 365.5 7160 367 7160 369.25Z" fill="#FDFDFD"/>
<path d="M4354.11 779.76C4345.47 750.255 4339.86 721.101 4337.44 691.134C4331.09 612.228 4343.02 536.962 4380.37 466.611C4395.86 437.445 4415.39 411.074 4438.04 386.9C4462.79 360.499 4490.31 337.698 4521.41 319.308C4561.37 295.68 4604.53 281.555 4650.64 275.926C4676.85 272.727 4703.1 272.196 4729.28 274.246C4794.14 279.323 4853.19 299.765 4903.32 342.631C4918.54 355.642 4932 370.297 4944.22 386.123C4945.41 387.67 4946.66 389.172 4949.13 392.241C4949.13 358.061 4949.13 325.691 4949.13 292.708C5002.17 292.708 5054.31 292.708 5107.06 292.708C5107.06 533.77 5107.06 774.858 5107.06 1016.62C5054.93 1016.62 5002.81 1016.62 4950.07 1016.62C4950.07 983.55 4950.07 950.677 4950.07 915.957C4947.35 918.47 4945.61 919.662 4944.4 921.249C4912.56 962.795 4872.9 994.25 4824.08 1013.5C4794.87 1025.02 4764.51 1032.36 4733.07 1033.97C4712.53 1035.02 4691.86 1036.17 4671.38 1035C4633.05 1032.82 4595.89 1024.4 4560.48 1009.11C4520.98 992.061 4486.13 968.221 4455.07 938.417C4421.65 906.342 4393.9 870.188 4373.85 828.429C4366.4 812.91 4360.75 796.529 4354.11 779.76ZM4567.95 829.096C4595.43 853.818 4627.17 870.48 4663.1 879.088C4691.16 885.812 4719.6 886.916 4748.24 884.093C4821.04 876.916 4876.31 841.132 4915.79 780.381C4937.47 747.032 4947.25 709.572 4949.49 670.252C4951.26 639.25 4948.22 608.554 4938.79 578.741C4925.71 537.423 4902.31 503.038 4869.31 475.045C4846.17 455.419 4820.13 441.226 4790.98 432.836C4757.67 423.245 4723.79 421.283 4689.41 425.239C4638.29 431.121 4594.69 452.602 4558.53 488.815C4532.54 514.842 4514.07 545.648 4503.43 581.083C4495.22 608.434 4492.96 636.349 4493.6 664.723C4494.18 690.484 4498.68 715.459 4507.35 739.674C4519.69 774.186 4540.16 803.277 4567.95 829.096Z" fill="#FEFEFE"/>
<path d="M3021.9 527.877C3037.52 481.422 3061.63 440.849 3093.59 404.782C3127.96 366 3167.54 334.022 3214.17 311.078C3248.75 294.06 3285.25 283.3 3323.34 277.646C3354.74 272.985 3386.35 272.059 3417.86 274.452C3499.84 280.677 3572.81 309.34 3635.33 363.624C3675.82 398.776 3708.74 439.611 3731.83 488.102C3748.97 524.095 3759.75 561.942 3764.4 601.585C3766.96 623.411 3768.4 645.27 3767.63 667.211C3765.86 717.101 3757.01 765.554 3736.39 811.336C3701.16 889.533 3645.15 948.693 3570.74 990.716C3531.16 1013.07 3488.43 1025.95 3443.56 1032.21C3415.15 1036.17 3386.58 1037.35 3358.02 1035.49C3285.02 1030.74 3218.16 1008.44 3158.9 964.668C3113.02 930.777 3075.34 889.633 3047.46 839.804C3027.32 803.786 3014.47 765.201 3007.57 724.472C3002.32 693.472 3001.1 662.267 3002.56 631.071C3004.19 596.171 3009.99 561.788 3021.9 527.877ZM3564.84 514.2C3521.86 458.79 3464.97 430.03 3395.27 426.356C3374.3 425.251 3353.36 427.113 3332.92 431.935C3256.7 449.918 3203.49 496.022 3174.83 568.157C3153.54 621.736 3153.89 677.409 3171.49 732.397C3185.4 775.867 3212.09 810.53 3247.94 838.421C3288.77 870.183 3335.94 882.578 3386.68 883.412C3398.2 883.602 3409.86 881.992 3421.29 880.163C3502.02 867.242 3558.45 822.029 3591.96 748.443C3609.84 709.181 3613.18 667.231 3608.41 624.469C3603.91 584.196 3590.29 547.67 3564.84 514.2Z" fill="#FC3F5F"/>
<path d="M2399.68 661.544C2397.89 681.624 2396.86 700.879 2394.15 719.894C2385.23 782.521 2360.8 838.728 2321.84 888.486C2289.47 929.825 2250.7 963.962 2204.71 989.558C2163.86 1012.3 2120.16 1026.36 2073.74 1032.36C2045.6 1035.99 2017.4 1037.36 1989.17 1035.46C1942.07 1032.27 1896.59 1022.05 1853.53 1001.99C1811.73 982.51 1775.19 955.899 1742.64 923.296C1707.36 887.961 1679.54 847.774 1660.76 801.528C1646.93 767.452 1638.88 731.961 1635.5 695.262C1633.32 671.64 1632.89 648.039 1634.49 624.499C1637.59 578.722 1647.95 534.606 1667.35 492.783C1687.37 449.659 1715.02 412.058 1749.26 379.287C1803.77 327.108 1867.67 293.084 1942.33 279.7C1978.27 273.256 2014.48 271.75 2050.66 274.519C2116.83 279.584 2178.44 299.193 2233.16 337.621C2307.22 389.617 2359.91 457.471 2384.84 545.356C2393.12 574.533 2397.99 604.324 2398.37 634.766C2398.48 643.385 2399.23 651.995 2399.68 661.544ZM2026.41 426.255C2009.44 425.805 1992.51 426.67 1975.82 429.788C1894.06 445.067 1837.7 492.025 1806.21 568.406C1788.75 610.739 1786.96 655.603 1794.96 699.908C1809.03 777.912 1854.39 833.014 1926.27 865.473C1958.1 879.841 1992.23 884.539 2027.35 882.509C2042.35 881.643 2057.12 880.135 2071.72 876.817C2108.9 868.366 2141.31 850.706 2169.29 825.037C2191.56 804.593 2209.42 780.754 2221.77 752.968C2232.27 729.373 2238.13 704.76 2240.53 679.01C2243.7 645.121 2240.72 612.023 2230.64 579.608C2219.33 543.201 2198.83 512.602 2171.2 486.484C2141.71 458.613 2107.45 439.89 2067.63 431.908C2054.66 429.308 2041.41 428.107 2026.41 426.255Z" fill="#FC3F5F"/>
<path d="M2917.77 292.253C2922.04 292.253 2925.34 292.253 2928.48 292.253C2930.76 299.782 2931.66 421.567 2929.73 442.078C2929.49 442.297 2929.26 442.526 2929.01 442.733C2928.75 442.945 2928.48 443.311 2928.21 443.312C2869.91 443.337 2811.61 443.336 2752.34 443.336C2752.1 446.788 2751.71 449.634 2751.71 452.48C2751.68 568.794 2751.62 685.108 2751.84 801.421C2751.85 809.625 2753.29 818.018 2755.35 825.993C2762.74 854.629 2783.5 868.652 2810.92 873.786C2824.21 876.276 2837.94 877.296 2851.49 877.42C2877.36 877.655 2903.23 876.772 2929.72 876.343C2929.72 923.013 2929.72 969.526 2929.72 1016.97C2923.46 1017.83 2917.02 1018.97 2910.52 1019.56C2879.39 1022.4 2848.21 1024.75 2816.94 1023.51C2783.03 1022.16 2749.45 1018.4 2716.92 1007.81C2663.84 990.522 2628.52 955.282 2610.17 902.821C2602.13 879.816 2597.01 856.123 2595.75 831.752C2594.72 811.84 2593.81 791.895 2593.77 771.963C2593.58 666.981 2593.68 561.999 2593.68 457.017C2593.68 453.067 2593.68 449.117 2593.68 443.695C2578.56 443.52 2564.05 443.632 2549.54 443.612C2534.88 443.592 2520.22 443.608 2505.55 443.608C2490.94 443.608 2476.33 443.608 2461.02 443.608C2461.02 393.06 2461.02 343.293 2461.02 292.416C2504.98 292.416 2548.77 292.416 2593.4 292.416C2593.4 239.79 2593.4 188.258 2593.4 135.91C2646.04 120.315 2698.12 104.885 2751.39 89.1025C2751.39 157.254 2751.39 224.058 2751.39 292.252C2807.12 292.252 2861.96 292.252 2917.77 292.253Z" fill="#FC3F5F"/>
<path d="M6342.33 795.37C6337.05 743.419 6341.78 693.492 6362.17 646.128C6390.69 579.868 6437.81 531.147 6504.16 501.954C6532.76 489.371 6563.01 483.759 6594.26 483.246C6620.63 482.813 6646.69 484.54 6672.27 491.648C6704.21 500.526 6732.93 515.188 6756.97 538.232C6766.51 547.38 6775.34 557.267 6785.4 567.754C6785.4 543.661 6785.4 520.31 6785.4 496.534C6823.68 496.534 6860.92 496.534 6898.18 496.534C6900.26 503.991 6901.22 991.265 6899.14 1021.41C6861.75 1021.41 6824.29 1021.41 6785.99 1021.41C6785.99 998.158 6785.99 974.71 6785.99 949.051C6783.24 951.763 6781.88 952.851 6780.83 954.184C6742.98 1002.22 6693.39 1028.19 6632.68 1034.22C6586.1 1038.85 6541.32 1033.34 6498.37 1014.23C6473.82 1003.31 6451.94 988.368 6432.26 970.303C6402.01 942.533 6377.82 910.267 6361.99 872.114C6353.3 851.181 6347.32 829.484 6343.96 807.066C6343.42 803.472 6342.88 799.88 6342.33 795.37ZM6568.65 599.402C6525.54 612.926 6493.92 640.148 6473.13 680.024C6458.52 708.039 6453.65 737.964 6455.48 769.41C6456.41 785.411 6458.45 801.036 6463.65 816.161C6480.42 864.99 6513.01 898.752 6561.27 916.936C6583.87 925.452 6607.47 927.522 6631.64 926.236C6677.59 923.79 6715.64 905.436 6745.64 870.864C6780.88 830.273 6790.63 782.207 6783.36 730.374C6777.88 691.278 6759.78 658.357 6729.91 631.935C6700.48 605.907 6665.9 593.881 6627.24 592.109C6607.85 591.221 6588.85 593.88 6568.65 599.402Z" fill="#FEFEFE"/>
<path d="M7030.32 704C7030.32 634.414 7030.32 565.829 7030.32 496.664C7068.84 496.664 7106.65 496.664 7145.07 496.664C7145.07 671.45 7145.07 846.209 7145.07 1021.53C7107.16 1021.53 7069.34 1021.53 7030.32 1021.53C7030.32 916.027 7030.32 810.513 7030.32 704Z" fill="#FDFDFD"/>
<path d="M6175.4 885.211C6195.68 875.354 6215.9 873.64 6236.88 879.846C6268.25 889.127 6295.68 921.445 6292.17 962.361C6289.22 996.81 6264.22 1026.04 6230.47 1033.07C6183.23 1042.91 6142 1012.58 6134.8 968.74C6129.52 936.562 6141.45 904.743 6175.4 885.211Z" fill="#FDFDFD"/>
</g>
<defs>
<clipPath id="clip0_4258_8137">
<rect width="7157" height="1323" fill="white"/>
</clipPath>
</defs>
</svg>
